<?xml version="1.0" encoding="UTF-8" standalone="no"?>
<!DOCTYPE svg PUBLIC "-//W3C//DTD SVG 1.1//EN" "http://www.w3.org/Graphics/SVG/1.1/DTD/svg11.dtd">
<svg width="100%" height="100%" viewBox="0 0 110 135" version="1.1" xmlns="http://www.w3.org/2000/svg" xmlns:xlink="http://www.w3.org/1999/xlink" xml:space="preserve" xmlns:serif="http://www.serif.com/" style="fill-rule:evenodd;clip-rule:evenodd;stroke-linejoin:round;stroke-miterlimit:2;">
    <g transform="matrix(1,0,0,1,5,10)">
        <path d="M100,81.898L0,81.898L0,20.66L100,20.66L100,81.898ZM5.172,76.73L94.82,76.73L94.82,25.828L5.172,25.828L5.172,76.73Z" style="fill-rule:nonzero;"/>
    </g>
    <g transform="matrix(1,0,0,1,5,10)">
        <path d="M29.02,31.531L10.54,31.531L10.54,49.929L15.72,49.929L15.72,36.699L29.021,36.699L29.02,31.531Z" style="fill-rule:nonzero;"/>
    </g>
    <g transform="matrix(1,0,0,1,5,10)">
        <path d="M89.449,71.059L89.449,52.571L84.281,52.571L84.281,65.891L70.969,65.891L70.969,71.059L89.449,71.059Z" style="fill-rule:nonzero;"/>
    </g>
</svg>
